<svg xmlns="http://www.w3.org/2000/svg" xmlns:xlink="http://www.w3.org/1999/xlink" width="38.302" height="47.6" viewBox="0 0 38.302 47.6">
  <defs>
    <linearGradient id="linear-gradient" x1="1.289" y1="-0.25" x2="-0.126" y2="1.249" gradientUnits="objectBoundingBox">
      <stop offset="0.205" stop-color="#39568a"/>
      <stop offset="0.447" stop-color="#4a79ab"/>
      <stop offset="0.687" stop-color="#5d99ca"/>
      <stop offset="0.875" stop-color="#6baede"/>
      <stop offset="0.988" stop-color="#71b6e5"/>
    </linearGradient>
  </defs>
  <path id="Контур_163" data-name="Контур 163" d="M50.87,31.52a7.112,7.112,0,0,0-6.73-4.08c-3.53-.04-7.06-.1-10.59.02-2.04.07-2.73-1.43-2.08-2.95.74-1.74,1.41-3.51,2.08-5.28a6.763,6.763,0,0,0-1.16-7.19c-1.15-1.37-2.2-1.37-3.46-.1-3.94,3.93-7.78,7.96-11.85,11.74-2.74,2.53-4.12,5.38-3.79,9.12.08.86.08,4.86.07,8.96H24.77a8.084,8.084,0,0,1,6.72-6.93,7.955,7.955,0,0,1,1.3-.11c.17,0,.33.01.5.02,1.57-.01.59-.01,2.15,0a1.228,1.228,0,0,1,1.22.77,1.516,1.516,0,0,1,.1.6c.01.45,0,.9,0,1.36,0,.33,0,.33.32.33h5.64a1.429,1.429,0,0,1,1.28.62,1.414,1.414,0,0,1-1.19,2.21H38.04c-.34,0-.68.01-1.02,0-.2-.01-.28.04-.27.26q.015,1.95,0,3.9c0,.23.08.27.29.27H42.8a1.4,1.4,0,0,1,1.42,1.12,1.429,1.429,0,0,1-1.46,1.72c-1.89-.01-3.78,0-5.66,0-.33,0-.33,0-.33.34,0,.53-.01,1.06-.02,1.59a1.211,1.211,0,0,1-1.2,1.12c-1.58,0-.61.01-2.19-.01-.19.01-.38.02-.57.02-.29,0-.57-.02-.85-.04a8.086,8.086,0,0,1-4.02-1.58c-.13-.1-.26-.2-.38-.31-.14-.12-.27-.24-.4-.37a1.14,1.14,0,0,1-.11-.11.6.6,0,0,0-.08-.08l-.1-.1a8.117,8.117,0,0,1-2.07-4.44H13.35c-.02,3.64-.04,6.93-.03,7.6a6.914,6.914,0,0,0,6.61,7.07l21.09-.02c3.83-.2,6.56-2.31,7.4-7.25l3.12-16.52a7.273,7.273,0,0,0-.67-3.29Z" transform="translate(-13.242 -11)" fill="url(#linear-gradient)"/>
</svg>
