<?xml version="1.0" encoding="utf-8"?>
<!-- Generator: Adobe Illustrator 24.0.1, SVG Export Plug-In . SVG Version: 6.00 Build 0)  -->
<svg version="1.1" id="Layer_1" xmlns="http://www.w3.org/2000/svg" xmlns:xlink="http://www.w3.org/1999/xlink" x="0px" y="0px"
	 viewBox="0 0 141.73 141.73" style="enable-background:new 0 0 141.73 141.73;" xml:space="preserve">
<style type="text/css">
	.st0{fill:url(#SVGID_1_);}
	.st1{fill:#FFFFFF;}
</style>
<g>
	<g>
		<path d="M61.86,44.5c-0.03,0.12-0.09,0.22-0.19,0.3c-0.1,0.07-0.21,0.11-0.33,0.11h-2.76c-0.11,0-0.19-0.03-0.25-0.09
			c-0.06-0.06-0.09-0.13-0.09-0.22c0-0.05,0-0.08,0.01-0.1l2.77-13.03c0.06-0.28,0.23-0.42,0.5-0.42h8.32c0.12,0,0.2,0.03,0.25,0.09
			c0.05,0.06,0.08,0.14,0.08,0.23c0,0.03-0.01,0.07-0.02,0.14l-0.52,2.43c-0.03,0.13-0.09,0.23-0.18,0.31
			c-0.09,0.07-0.2,0.11-0.32,0.11h-5.12L61.86,44.5z"/>
		<path d="M70.23,35.77c0.7-0.92,1.57-1.63,2.62-2.13c1.04-0.5,2.17-0.75,3.4-0.75c0.97,0,1.83,0.21,2.59,0.63
			c0.76,0.42,1.35,1,1.77,1.74s0.63,1.57,0.63,2.48c0,0.39-0.05,0.8-0.14,1.24c-0.25,1.24-0.73,2.32-1.43,3.24
			c-0.7,0.92-1.56,1.63-2.58,2.12c-1.02,0.5-2.14,0.74-3.34,0.74c-0.98,0-1.85-0.21-2.62-0.64c-0.77-0.43-1.36-1.02-1.79-1.77
			s-0.64-1.59-0.64-2.52c0-0.39,0.04-0.78,0.12-1.17C69.06,37.77,69.53,36.69,70.23,35.77z M72.16,39.69c0,0.43,0.09,0.81,0.26,1.15
			c0.17,0.34,0.42,0.61,0.75,0.81c0.33,0.2,0.71,0.3,1.16,0.3c0.53,0,1.03-0.14,1.5-0.41c0.47-0.27,0.87-0.63,1.19-1.09
			c0.32-0.45,0.54-0.94,0.65-1.47c0.05-0.26,0.08-0.49,0.08-0.71c0-0.43-0.08-0.81-0.25-1.15s-0.41-0.61-0.74-0.8
			c-0.32-0.19-0.71-0.29-1.15-0.29c-0.52,0-1.02,0.13-1.49,0.4c-0.47,0.27-0.87,0.63-1.2,1.08c-0.33,0.45-0.55,0.94-0.66,1.47
			C72.18,39.25,72.16,39.48,72.16,39.69z"/>
		<path d="M93.92,33.26c0,0.03-0.01,0.07-0.02,0.14l-0.51,2.42c-0.03,0.17-0.1,0.3-0.2,0.37c-0.1,0.07-0.2,0.11-0.3,0.11h-3.24
			l-1.71,8.01c-0.03,0.17-0.11,0.31-0.22,0.42c-0.12,0.11-0.25,0.17-0.41,0.17h-2.65c-0.23,0-0.34-0.12-0.34-0.36
			c0-0.09,0.01-0.17,0.03-0.23l1.71-8.01h-3.17c-0.23,0-0.35-0.1-0.35-0.3c0-0.03,0.01-0.08,0.02-0.16l0.5-2.37
			c0.03-0.12,0.09-0.23,0.19-0.33c0.1-0.1,0.21-0.15,0.33-0.15l10.04,0.01C93.82,33.01,93.92,33.09,93.92,33.26z"/>
		<path d="M95.35,35.77c0.7-0.92,1.57-1.63,2.62-2.13c1.04-0.5,2.17-0.75,3.4-0.75c0.97,0,1.83,0.21,2.59,0.63
			c0.76,0.42,1.35,1,1.77,1.74s0.63,1.57,0.63,2.48c0,0.39-0.05,0.8-0.14,1.24c-0.25,1.24-0.73,2.32-1.43,3.24
			c-0.7,0.92-1.56,1.63-2.58,2.12c-1.02,0.5-2.14,0.74-3.34,0.74c-0.98,0-1.85-0.21-2.62-0.64c-0.77-0.43-1.36-1.02-1.79-1.77
			s-0.64-1.59-0.64-2.52c0-0.39,0.04-0.78,0.12-1.17C94.18,37.77,94.65,36.69,95.35,35.77z M97.28,39.69c0,0.43,0.09,0.81,0.26,1.15
			c0.17,0.34,0.42,0.61,0.75,0.81c0.33,0.2,0.71,0.3,1.16,0.3c0.53,0,1.03-0.14,1.5-0.41c0.47-0.27,0.87-0.63,1.19-1.09
			c0.32-0.45,0.54-0.94,0.65-1.47c0.05-0.26,0.08-0.49,0.08-0.71c0-0.43-0.08-0.81-0.25-1.15s-0.41-0.61-0.74-0.8
			c-0.32-0.19-0.71-0.29-1.15-0.29c-0.52,0-1.02,0.13-1.49,0.4c-0.47,0.27-0.87,0.63-1.2,1.08c-0.33,0.45-0.55,0.94-0.66,1.47
			C97.31,39.25,97.28,39.48,97.28,39.69z"/>
		<path d="M120.12,37.55c-0.23,0.31-0.51,0.62-0.85,0.92c0.25,0.3,0.45,0.64,0.59,1.02c0.14,0.38,0.21,0.77,0.21,1.17
			c0,0.22-0.03,0.46-0.08,0.72c-0.14,0.65-0.42,1.24-0.84,1.77c-0.42,0.53-0.95,0.96-1.59,1.27c-0.64,0.31-1.34,0.47-2.11,0.47
			h-7.36c-0.3,0-0.45-0.11-0.45-0.34c0-0.03,0.01-0.09,0.02-0.17l2.31-10.88c0.08-0.37,0.29-0.55,0.65-0.55h6.98
			c0.58,0,1.11,0.13,1.57,0.4c0.47,0.26,0.83,0.62,1.09,1.07c0.26,0.45,0.39,0.93,0.39,1.45c0,0.21-0.02,0.42-0.07,0.62
			C120.51,36.89,120.35,37.24,120.12,37.55z M111.61,42.41h3.51c0.44,0,0.8-0.13,1.09-0.4c0.29-0.26,0.47-0.59,0.56-0.98
			c0.02-0.08,0.03-0.15,0.03-0.23c0-0.3-0.11-0.54-0.33-0.74c-0.22-0.19-0.48-0.29-0.78-0.29h-3.51L111.61,42.41z M117.31,36.2
			c0-0.25-0.1-0.44-0.29-0.56c-0.19-0.12-0.46-0.18-0.79-0.18h-3.15l-0.43,2.03h3.14c0.39,0,0.71-0.09,0.97-0.26
			c0.26-0.17,0.43-0.44,0.51-0.79C117.3,36.35,117.31,36.27,117.31,36.2z"/>
		<path d="M123.85,35.77c0.7-0.92,1.57-1.63,2.62-2.13c1.04-0.5,2.18-0.75,3.4-0.75c0.97,0,1.83,0.21,2.59,0.63
			c0.76,0.42,1.34,1,1.77,1.74c0.42,0.74,0.63,1.57,0.63,2.48c0,0.39-0.05,0.8-0.14,1.24c-0.25,1.24-0.73,2.32-1.43,3.24
			c-0.7,0.92-1.56,1.63-2.58,2.12c-1.02,0.5-2.13,0.74-3.34,0.74c-0.98,0-1.85-0.21-2.62-0.64c-0.77-0.43-1.36-1.02-1.79-1.77
			s-0.64-1.59-0.64-2.52c0-0.39,0.04-0.78,0.12-1.17C122.68,37.77,123.15,36.69,123.85,35.77z M125.78,39.69
			c0,0.43,0.09,0.81,0.26,1.15c0.17,0.34,0.42,0.61,0.75,0.81s0.71,0.3,1.16,0.3c0.53,0,1.03-0.14,1.5-0.41
			c0.47-0.27,0.87-0.63,1.19-1.09c0.32-0.45,0.54-0.94,0.65-1.47c0.05-0.26,0.08-0.49,0.08-0.71c0-0.43-0.08-0.81-0.25-1.15
			c-0.17-0.34-0.41-0.61-0.74-0.8c-0.32-0.19-0.71-0.29-1.16-0.29c-0.52,0-1.02,0.13-1.49,0.4c-0.47,0.27-0.87,0.63-1.2,1.08
			c-0.33,0.45-0.55,0.94-0.66,1.47C125.8,39.25,125.78,39.48,125.78,39.69z"/>
	</g>
	<g>
		<path d="M61.93,53.61c0.08,0,0.13,0.03,0.16,0.09l0.72,1.39c0.03,0.06,0.04,0.11,0.04,0.16c0,0.08-0.06,0.17-0.18,0.25
			c-0.37,0.28-0.81,0.51-1.32,0.69c-0.51,0.18-1,0.28-1.47,0.28c-0.68,0-1.3-0.15-1.85-0.46c-0.55-0.31-0.97-0.73-1.28-1.27
			c-0.31-0.55-0.46-1.16-0.46-1.85c0-0.26,0.02-0.53,0.08-0.83c0.13-0.78,0.44-1.49,0.93-2.13c0.49-0.64,1.09-1.15,1.79-1.51
			c0.71-0.37,1.45-0.55,2.23-0.55c0.58,0,1.09,0.09,1.52,0.27c0.43,0.18,0.82,0.43,1.16,0.75c0.05,0.05,0.08,0.11,0.08,0.16
			c0,0.05-0.02,0.09-0.07,0.14l-1.18,1.38c-0.05,0.05-0.12,0.08-0.18,0.08c-0.05,0-0.1-0.02-0.14-0.05
			c-0.24-0.19-0.47-0.33-0.69-0.41c-0.23-0.08-0.47-0.12-0.74-0.12c-0.33,0-0.66,0.09-0.99,0.27c-0.33,0.18-0.61,0.43-0.85,0.75
			c-0.24,0.32-0.41,0.68-0.49,1.08c-0.04,0.19-0.06,0.37-0.06,0.52c0,0.31,0.06,0.58,0.19,0.82c0.13,0.24,0.3,0.42,0.53,0.55
			c0.23,0.13,0.49,0.19,0.79,0.19c0.26,0,0.52-0.05,0.77-0.16c0.25-0.11,0.51-0.25,0.79-0.42C61.8,53.63,61.87,53.61,61.93,53.61z"
			/>
		<path d="M71.86,53.62c0.08,0,0.13,0.03,0.17,0.1l0.7,1.17c0.04,0.07,0.06,0.13,0.06,0.19c0,0.09-0.06,0.17-0.17,0.25
			c-0.61,0.45-1.17,0.75-1.68,0.91c-0.51,0.15-1.05,0.23-1.63,0.23c-0.67,0-1.27-0.15-1.82-0.46c-0.55-0.31-0.98-0.74-1.29-1.28
			c-0.31-0.54-0.47-1.14-0.47-1.81c0-0.26,0.02-0.5,0.07-0.75c0.15-0.85,0.46-1.6,0.93-2.25c0.47-0.65,1.06-1.15,1.77-1.51
			c0.71-0.36,1.47-0.54,2.3-0.54c0.5,0,0.99,0.12,1.47,0.37c0.48,0.24,0.87,0.62,1.19,1.13c0.31,0.51,0.47,1.14,0.47,1.88
			c0,0.28-0.02,0.57-0.07,0.86c-0.04,0.24-0.1,0.41-0.18,0.53c-0.09,0.12-0.2,0.19-0.35,0.24c-0.15,0.04-0.35,0.06-0.61,0.06h-4.66
			c0.02,0.3,0.1,0.56,0.23,0.78c0.14,0.22,0.32,0.4,0.55,0.52c0.23,0.12,0.49,0.18,0.78,0.18c0.32,0,0.6-0.03,0.83-0.08
			c0.23-0.05,0.41-0.12,0.55-0.2c0.14-0.08,0.3-0.18,0.46-0.31c0.1-0.07,0.18-0.13,0.23-0.16C71.73,53.64,71.79,53.62,71.86,53.62z
			 M69.4,50.2c-0.33,0.23-0.61,0.52-0.84,0.87h3.32c-0.04-0.38-0.19-0.68-0.46-0.89c-0.27-0.21-0.6-0.32-0.98-0.32
			C70.07,49.86,69.73,49.97,69.4,50.2z"/>
		<path d="M78.28,47.95h1.39c0.1,0,0.17,0.04,0.2,0.12c0.03,0.08,0.05,0.16,0.05,0.25c0,0.09,0.01,0.15,0.01,0.18l0.03,0.56
			c0.83-0.79,1.72-1.19,2.69-1.19c0.62,0,1.17,0.14,1.65,0.42c0.48,0.28,0.85,0.67,1.12,1.17c0.27,0.5,0.4,1.08,0.4,1.74
			c0,0.35-0.04,0.71-0.12,1.09c-0.17,0.8-0.48,1.51-0.92,2.14c-0.44,0.63-1,1.12-1.67,1.48c-0.67,0.36-1.42,0.54-2.25,0.54
			c-0.41,0-0.79-0.08-1.15-0.24c-0.36-0.16-0.64-0.37-0.85-0.62l-0.64,3.02c-0.04,0.2-0.16,0.29-0.36,0.29h-1.91
			c-0.08,0-0.15-0.02-0.19-0.05c-0.05-0.03-0.07-0.09-0.07-0.15c0-0.01,0-0.04,0.01-0.09l2.2-10.35
			C77.96,48.05,78.08,47.95,78.28,47.95z M79.35,52.63c0,0.29,0.06,0.56,0.18,0.8c0.12,0.24,0.3,0.43,0.53,0.57
			c0.23,0.14,0.52,0.21,0.86,0.21c0.4,0,0.77-0.09,1.12-0.27c0.34-0.18,0.63-0.43,0.87-0.74c0.23-0.31,0.39-0.66,0.48-1.05
			c0.04-0.19,0.06-0.37,0.06-0.54c0-0.46-0.14-0.84-0.41-1.12c-0.28-0.28-0.68-0.42-1.21-0.42c-0.37,0-0.73,0.1-1.07,0.3
			c-0.34,0.2-0.64,0.46-0.88,0.78s-0.4,0.66-0.47,1C79.36,52.31,79.35,52.46,79.35,52.63z"/>
		<path d="M96.84,51.15c-0.16,0.22-0.36,0.44-0.6,0.65c0.18,0.21,0.32,0.45,0.42,0.72c0.1,0.26,0.15,0.54,0.15,0.83
			c0,0.15-0.02,0.32-0.05,0.51c-0.1,0.46-0.3,0.87-0.59,1.25c-0.3,0.38-0.67,0.68-1.12,0.9c-0.45,0.22-0.95,0.33-1.48,0.33h-5.18
			c-0.21,0-0.31-0.08-0.31-0.24c0-0.02,0-0.06,0.01-0.12l1.63-7.67c0.05-0.26,0.21-0.39,0.46-0.39h4.92c0.41,0,0.78,0.09,1.11,0.28
			c0.33,0.19,0.58,0.44,0.77,0.76c0.18,0.32,0.27,0.66,0.27,1.02c0,0.15-0.02,0.3-0.05,0.44C97.11,50.69,97,50.94,96.84,51.15z
			 M90.84,54.57h2.48c0.31,0,0.57-0.09,0.77-0.28c0.2-0.19,0.33-0.42,0.39-0.69c0.01-0.06,0.02-0.11,0.02-0.16
			c0-0.21-0.08-0.38-0.24-0.52c-0.16-0.14-0.34-0.21-0.55-0.21h-2.48L90.84,54.57z M94.86,50.2c0-0.18-0.07-0.31-0.21-0.4
			c-0.14-0.09-0.32-0.13-0.55-0.13h-2.22l-0.3,1.43h2.22c0.27,0,0.5-0.06,0.69-0.18c0.18-0.12,0.3-0.31,0.36-0.56
			C94.85,50.3,94.86,50.25,94.86,50.2z"/>
		<path d="M106.29,48.17c0.07-0.08,0.13-0.13,0.17-0.16c0.05-0.03,0.09-0.05,0.14-0.05h1.96c0.06,0,0.12,0.02,0.16,0.05
			c0.05,0.04,0.07,0.09,0.07,0.16c0,0.03,0,0.06-0.01,0.08l-1.66,7.8c-0.03,0.19-0.15,0.29-0.34,0.29h-1.95
			c-0.16,0-0.25-0.07-0.25-0.2c0-0.01,0-0.04,0.01-0.09l0.88-4.14l-3.7,4.23c-0.07,0.08-0.12,0.13-0.16,0.15
			c-0.04,0.02-0.1,0.04-0.17,0.04H99.5c-0.15,0-0.23-0.06-0.23-0.19c0-0.02,0-0.05,0.01-0.1l1.66-7.8c0.02-0.09,0.06-0.16,0.13-0.21
			c0.07-0.05,0.14-0.08,0.22-0.08h1.95c0.06,0,0.12,0.02,0.16,0.05c0.05,0.04,0.07,0.09,0.07,0.16c0,0.03,0,0.06-0.01,0.08
			l-0.9,4.21L106.29,48.17z"/>
		<path d="M116.38,53.61c0.08,0,0.13,0.03,0.16,0.09l0.72,1.39c0.03,0.06,0.04,0.11,0.04,0.16c0,0.08-0.06,0.17-0.18,0.25
			c-0.37,0.28-0.81,0.51-1.32,0.69c-0.51,0.18-1,0.28-1.47,0.28c-0.68,0-1.3-0.15-1.85-0.46c-0.55-0.31-0.97-0.73-1.28-1.27
			c-0.31-0.55-0.46-1.16-0.46-1.85c0-0.26,0.02-0.53,0.08-0.83c0.13-0.78,0.44-1.49,0.93-2.13c0.49-0.64,1.09-1.15,1.79-1.51
			c0.71-0.37,1.45-0.55,2.23-0.55c0.58,0,1.09,0.09,1.52,0.27c0.43,0.18,0.82,0.43,1.16,0.75c0.05,0.05,0.08,0.11,0.08,0.16
			c0,0.05-0.02,0.09-0.07,0.14l-1.18,1.38c-0.05,0.05-0.12,0.08-0.18,0.08c-0.05,0-0.1-0.02-0.14-0.05
			c-0.24-0.19-0.47-0.33-0.69-0.41c-0.23-0.08-0.47-0.12-0.74-0.12c-0.33,0-0.66,0.09-0.99,0.27c-0.33,0.18-0.61,0.43-0.85,0.75
			c-0.24,0.32-0.41,0.68-0.49,1.08c-0.04,0.19-0.06,0.37-0.06,0.52c0,0.31,0.06,0.58,0.19,0.82c0.13,0.24,0.3,0.42,0.53,0.55
			c0.23,0.13,0.49,0.19,0.79,0.19c0.26,0,0.52-0.05,0.77-0.16c0.25-0.11,0.51-0.25,0.79-0.42
			C116.25,53.63,116.31,53.61,116.38,53.61z"/>
	</g>
	<linearGradient id="SVGID_1_" gradientUnits="userSpaceOnUse" x1="62.6006" y1="-0.9028" x2="8.398" y2="70.4639">
		<stop  offset="0.2049" style="stop-color:#39568A"/>
		<stop  offset="0.4472" style="stop-color:#4A79AB"/>
		<stop  offset="0.6865" style="stop-color:#5D99CA"/>
		<stop  offset="0.8747" style="stop-color:#6BAEDE"/>
		<stop  offset="0.9885" style="stop-color:#71B6E5"/>
	</linearGradient>
	<path class="st0" d="M50.87,31.52c-1.38-2.75-3.71-4.04-6.73-4.08c-3.53-0.04-7.06-0.1-10.59,0.02c-2.04,0.07-2.73-1.43-2.08-2.95
		c0.74-1.74,1.41-3.51,2.08-5.28c1-2.61,0.64-5.04-1.16-7.19c-1.15-1.37-2.2-1.37-3.46-0.1c-3.94,3.93-7.78,7.96-11.85,11.74
		c-2.74,2.53-4.12,5.38-3.79,9.12c0.08,0.86,0.08,4.86,0.07,8.96h11.41c0.47-3.54,3.2-6.37,6.72-6.93c0.42-0.07,0.86-0.11,1.3-0.11
		c0.17,0,0.33,0.01,0.5,0.02c1.57-0.01,0.59-0.01,2.15,0c0.56,0,0.99,0.24,1.22,0.77c0.08,0.18,0.1,0.4,0.1,0.6
		c0.01,0.45,0,0.9,0,1.36c0,0.33,0,0.33,0.32,0.33c1.88,0,3.76,0,5.64,0c0.53,0,0.98,0.17,1.28,0.62c0.31,0.46,0.34,0.95,0.09,1.44
		c-0.26,0.52-0.71,0.77-1.28,0.77c-1.56,0-3.12,0-4.69,0c-0.03,0-0.05,0-0.08,0c-0.34,0-0.68,0.01-1.02,0
		c-0.2-0.01-0.28,0.04-0.27,0.26c0.01,1.3,0.01,2.6,0,3.9c0,0.23,0.08,0.27,0.29,0.27c0.33,0,0.67,0,1,0c1.59,0,3.17,0,4.76,0
		c0.72,0,1.25,0.43,1.42,1.12c0.18,0.74-0.35,1.72-1.46,1.72c-1.89-0.01-3.78,0-5.66,0c-0.33,0-0.33,0-0.33,0.34
		c0,0.53-0.01,1.06-0.02,1.59c-0.01,0.58-0.56,1.12-1.2,1.12c-1.58,0-0.61,0.01-2.19-0.01c-0.19,0.01-0.38,0.02-0.57,0.02
		c-0.29,0-0.57-0.02-0.85-0.04c-1.5-0.16-2.88-0.72-4.02-1.58c-0.13-0.1-0.26-0.2-0.38-0.31c-0.14-0.12-0.27-0.24-0.4-0.37
		c-0.04-0.04-0.08-0.07-0.11-0.11c-0.03-0.03-0.05-0.06-0.08-0.08c-0.03-0.03-0.07-0.07-0.1-0.1c-1.11-1.2-1.84-2.74-2.07-4.44
		H13.35c-0.02,3.64-0.04,6.93-0.03,7.6c0.04,4.21,3.34,7.09,6.61,7.07l21.09-0.02c3.83-0.2,6.56-2.31,7.4-7.25l3.12-16.52
		C51.54,33.67,51.38,32.54,50.87,31.52z"/>
</g>
<g>
	<g>
		<path class="st1" d="M61.86,98.32c-0.03,0.12-0.09,0.22-0.19,0.3c-0.1,0.08-0.21,0.11-0.33,0.11h-2.76
			c-0.11,0-0.19-0.03-0.25-0.09c-0.06-0.06-0.09-0.13-0.09-0.22c0-0.05,0-0.08,0.01-0.1l2.77-13.03c0.06-0.28,0.23-0.42,0.5-0.42
			h8.32c0.12,0,0.2,0.03,0.25,0.09c0.05,0.06,0.08,0.14,0.08,0.23c0,0.03-0.01,0.07-0.02,0.14l-0.52,2.43
			c-0.03,0.13-0.09,0.23-0.18,0.31c-0.09,0.08-0.2,0.11-0.32,0.11h-5.12L61.86,98.32z"/>
		<path class="st1" d="M70.23,89.59c0.7-0.92,1.57-1.63,2.62-2.13c1.04-0.5,2.17-0.75,3.4-0.75c0.97,0,1.83,0.21,2.59,0.63
			c0.76,0.42,1.35,1,1.77,1.74c0.42,0.74,0.63,1.57,0.63,2.48c0,0.39-0.05,0.8-0.14,1.24c-0.25,1.24-0.73,2.32-1.43,3.24
			c-0.7,0.92-1.56,1.63-2.58,2.12c-1.02,0.49-2.14,0.74-3.34,0.74c-0.98,0-1.85-0.21-2.62-0.64s-1.36-1.02-1.79-1.77
			c-0.43-0.75-0.64-1.59-0.64-2.52c0-0.39,0.04-0.78,0.12-1.17C69.06,91.58,69.53,90.51,70.23,89.59z M72.16,93.5
			c0,0.43,0.09,0.81,0.26,1.15c0.17,0.34,0.42,0.61,0.75,0.81c0.33,0.2,0.71,0.3,1.16,0.3c0.53,0,1.03-0.13,1.5-0.41
			c0.47-0.27,0.87-0.63,1.19-1.09c0.32-0.45,0.54-0.94,0.65-1.46c0.05-0.26,0.08-0.5,0.08-0.71c0-0.43-0.08-0.81-0.25-1.15
			c-0.17-0.34-0.41-0.61-0.74-0.8c-0.32-0.19-0.71-0.29-1.15-0.29c-0.52,0-1.02,0.13-1.49,0.4c-0.47,0.27-0.87,0.63-1.2,1.08
			c-0.33,0.45-0.55,0.94-0.66,1.47C72.18,93.06,72.16,93.3,72.16,93.5z"/>
		<path class="st1" d="M93.92,87.08c0,0.03-0.01,0.07-0.02,0.14l-0.51,2.42c-0.03,0.17-0.1,0.3-0.2,0.37
			c-0.1,0.07-0.2,0.11-0.3,0.11h-3.24l-1.71,8.01c-0.03,0.17-0.11,0.31-0.22,0.42c-0.12,0.11-0.25,0.17-0.41,0.17h-2.65
			c-0.23,0-0.34-0.12-0.34-0.36c0-0.09,0.01-0.17,0.03-0.23l1.71-8.01h-3.17c-0.23,0-0.35-0.1-0.35-0.3c0-0.03,0.01-0.08,0.02-0.15
			l0.5-2.37c0.03-0.12,0.09-0.23,0.19-0.33c0.1-0.1,0.21-0.15,0.33-0.15l10.04,0.01C93.82,86.83,93.92,86.91,93.92,87.08z"/>
		<path class="st1" d="M95.35,89.59c0.7-0.92,1.57-1.63,2.62-2.13c1.04-0.5,2.17-0.75,3.4-0.75c0.97,0,1.83,0.21,2.59,0.63
			c0.76,0.42,1.35,1,1.77,1.74c0.42,0.74,0.63,1.57,0.63,2.48c0,0.39-0.05,0.8-0.14,1.24c-0.25,1.24-0.73,2.32-1.43,3.24
			c-0.7,0.92-1.56,1.63-2.58,2.12c-1.02,0.49-2.14,0.74-3.34,0.74c-0.98,0-1.85-0.21-2.62-0.64s-1.36-1.02-1.79-1.77
			c-0.43-0.75-0.64-1.59-0.64-2.52c0-0.39,0.04-0.78,0.12-1.17C94.18,91.58,94.65,90.51,95.35,89.59z M97.28,93.5
			c0,0.43,0.09,0.81,0.26,1.15c0.17,0.34,0.42,0.61,0.75,0.81c0.33,0.2,0.71,0.3,1.16,0.3c0.53,0,1.03-0.13,1.5-0.41
			c0.47-0.27,0.87-0.63,1.19-1.09c0.32-0.45,0.54-0.94,0.65-1.46c0.05-0.26,0.08-0.5,0.08-0.71c0-0.43-0.08-0.81-0.25-1.15
			c-0.17-0.34-0.41-0.61-0.74-0.8c-0.32-0.19-0.71-0.29-1.15-0.29c-0.52,0-1.02,0.13-1.49,0.4c-0.47,0.27-0.87,0.63-1.2,1.08
			c-0.33,0.45-0.55,0.94-0.66,1.47C97.31,93.06,97.28,93.3,97.28,93.5z"/>
		<path class="st1" d="M120.12,91.37c-0.23,0.31-0.51,0.62-0.85,0.92c0.25,0.3,0.45,0.64,0.59,1.02c0.14,0.38,0.21,0.77,0.21,1.18
			c0,0.22-0.03,0.46-0.08,0.72c-0.14,0.65-0.42,1.24-0.84,1.77c-0.42,0.53-0.95,0.96-1.59,1.27c-0.64,0.31-1.34,0.47-2.11,0.47
			h-7.36c-0.3,0-0.45-0.11-0.45-0.34c0-0.03,0.01-0.09,0.02-0.17l2.31-10.88c0.08-0.37,0.29-0.55,0.65-0.55h6.98
			c0.58,0,1.11,0.13,1.57,0.4s0.83,0.62,1.09,1.07c0.26,0.45,0.39,0.93,0.39,1.45c0,0.21-0.02,0.42-0.07,0.62
			C120.51,90.71,120.35,91.06,120.12,91.37z M111.61,96.22h3.51c0.44,0,0.8-0.13,1.09-0.4c0.29-0.27,0.47-0.59,0.56-0.98
			c0.02-0.08,0.03-0.15,0.03-0.23c0-0.3-0.11-0.54-0.33-0.74c-0.22-0.19-0.48-0.29-0.78-0.29h-3.51L111.61,96.22z M117.31,90.02
			c0-0.25-0.1-0.44-0.29-0.56c-0.19-0.12-0.46-0.18-0.79-0.18h-3.15l-0.43,2.03h3.14c0.39,0,0.71-0.08,0.97-0.26
			c0.26-0.17,0.43-0.43,0.51-0.79C117.3,90.16,117.31,90.08,117.31,90.02z"/>
		<path class="st1" d="M123.85,89.59c0.7-0.92,1.57-1.63,2.62-2.13c1.04-0.5,2.17-0.75,3.4-0.75c0.97,0,1.83,0.21,2.59,0.63
			c0.76,0.42,1.35,1,1.77,1.74c0.42,0.74,0.63,1.57,0.63,2.48c0,0.39-0.05,0.8-0.14,1.24c-0.25,1.24-0.73,2.32-1.43,3.24
			c-0.7,0.92-1.56,1.63-2.58,2.12c-1.02,0.49-2.14,0.74-3.34,0.74c-0.98,0-1.85-0.21-2.62-0.64s-1.36-1.02-1.79-1.77
			c-0.43-0.75-0.64-1.59-0.64-2.52c0-0.39,0.04-0.78,0.12-1.17C122.68,91.58,123.15,90.51,123.85,89.59z M125.78,93.5
			c0,0.43,0.09,0.81,0.26,1.15c0.17,0.34,0.42,0.61,0.75,0.81c0.33,0.2,0.71,0.3,1.16,0.3c0.53,0,1.03-0.13,1.5-0.41
			c0.47-0.27,0.87-0.63,1.19-1.09s0.54-0.94,0.65-1.46c0.05-0.26,0.08-0.5,0.08-0.71c0-0.43-0.08-0.81-0.25-1.15
			c-0.17-0.34-0.41-0.61-0.74-0.8c-0.32-0.19-0.71-0.29-1.15-0.29c-0.52,0-1.02,0.13-1.49,0.4c-0.47,0.27-0.87,0.63-1.2,1.08
			c-0.33,0.45-0.55,0.94-0.66,1.47C125.8,93.06,125.78,93.3,125.78,93.5z"/>
	</g>
	<g>
		<path class="st1" d="M61.93,107.43c0.08,0,0.13,0.03,0.16,0.09l0.72,1.4c0.03,0.06,0.04,0.11,0.04,0.16
			c0,0.08-0.06,0.17-0.18,0.25c-0.37,0.28-0.81,0.51-1.32,0.69c-0.51,0.18-1,0.28-1.47,0.28c-0.68,0-1.3-0.15-1.85-0.46
			c-0.55-0.31-0.97-0.73-1.28-1.28c-0.31-0.54-0.46-1.16-0.46-1.85c0-0.26,0.02-0.53,0.08-0.83c0.13-0.78,0.44-1.49,0.93-2.13
			s1.09-1.15,1.79-1.51c0.71-0.37,1.45-0.55,2.23-0.55c0.58,0,1.09,0.09,1.52,0.27c0.43,0.18,0.82,0.43,1.16,0.75
			c0.05,0.06,0.08,0.11,0.08,0.16c0,0.05-0.02,0.09-0.07,0.14l-1.18,1.38c-0.05,0.06-0.12,0.08-0.18,0.08
			c-0.05,0-0.1-0.02-0.14-0.05c-0.24-0.19-0.47-0.33-0.69-0.41c-0.23-0.08-0.47-0.12-0.74-0.12c-0.33,0-0.66,0.09-0.99,0.27
			c-0.33,0.18-0.61,0.43-0.85,0.75c-0.24,0.32-0.41,0.68-0.49,1.08c-0.04,0.19-0.06,0.36-0.06,0.52c0,0.31,0.06,0.58,0.19,0.82
			c0.13,0.24,0.3,0.42,0.53,0.55c0.23,0.13,0.49,0.19,0.79,0.19c0.26,0,0.52-0.05,0.77-0.16c0.25-0.11,0.51-0.25,0.79-0.42
			C61.8,107.45,61.87,107.43,61.93,107.43z"/>
		<path class="st1" d="M71.86,107.43c0.08,0,0.13,0.03,0.17,0.1l0.7,1.17c0.04,0.07,0.06,0.13,0.06,0.19c0,0.09-0.06,0.17-0.17,0.25
			c-0.61,0.45-1.17,0.75-1.68,0.91c-0.51,0.15-1.05,0.23-1.63,0.23c-0.67,0-1.27-0.15-1.82-0.46c-0.55-0.31-0.98-0.73-1.29-1.27
			c-0.31-0.54-0.47-1.14-0.47-1.81c0-0.26,0.02-0.5,0.07-0.75c0.15-0.85,0.46-1.6,0.93-2.25c0.47-0.65,1.06-1.15,1.77-1.51
			c0.71-0.36,1.47-0.54,2.3-0.54c0.5,0,0.99,0.12,1.47,0.37c0.48,0.24,0.87,0.62,1.19,1.13c0.31,0.51,0.47,1.14,0.47,1.88
			c0,0.28-0.02,0.57-0.07,0.86c-0.04,0.24-0.1,0.41-0.18,0.53c-0.09,0.12-0.2,0.2-0.35,0.24c-0.15,0.04-0.35,0.06-0.61,0.06h-4.66
			c0.02,0.3,0.1,0.56,0.23,0.78c0.14,0.22,0.32,0.4,0.55,0.52c0.23,0.12,0.49,0.18,0.78,0.18c0.32,0,0.6-0.03,0.83-0.08
			c0.23-0.05,0.41-0.12,0.55-0.2c0.14-0.08,0.3-0.18,0.46-0.31c0.1-0.07,0.18-0.13,0.23-0.16
			C71.73,107.45,71.79,107.43,71.86,107.43z M69.4,104.02c-0.33,0.23-0.61,0.52-0.84,0.87h3.32c-0.04-0.38-0.19-0.68-0.46-0.89
			c-0.27-0.21-0.6-0.32-0.98-0.32C70.07,103.68,69.73,103.79,69.4,104.02z"/>
		<path class="st1" d="M78.28,101.77h1.39c0.1,0,0.17,0.04,0.2,0.12c0.03,0.08,0.05,0.16,0.05,0.25c0,0.09,0.01,0.15,0.01,0.18
			l0.03,0.56c0.83-0.79,1.72-1.19,2.69-1.19c0.62,0,1.17,0.14,1.65,0.42c0.48,0.28,0.85,0.67,1.12,1.17c0.27,0.5,0.4,1.08,0.4,1.74
			c0,0.35-0.04,0.71-0.12,1.09c-0.17,0.8-0.48,1.51-0.92,2.14c-0.44,0.63-1,1.12-1.67,1.48c-0.67,0.36-1.42,0.54-2.25,0.54
			c-0.41,0-0.79-0.08-1.15-0.24c-0.36-0.16-0.64-0.37-0.85-0.62l-0.64,3.02c-0.04,0.2-0.16,0.29-0.36,0.29h-1.91
			c-0.08,0-0.15-0.02-0.19-0.05c-0.05-0.04-0.07-0.09-0.07-0.15c0-0.01,0-0.04,0.01-0.09l2.2-10.35
			C77.96,101.87,78.08,101.77,78.28,101.77z M79.35,106.45c0,0.29,0.06,0.56,0.18,0.8c0.12,0.24,0.3,0.43,0.53,0.57
			s0.52,0.21,0.86,0.21c0.4,0,0.77-0.09,1.12-0.27c0.34-0.18,0.63-0.42,0.87-0.73c0.23-0.31,0.39-0.66,0.48-1.05
			c0.04-0.19,0.06-0.37,0.06-0.54c0-0.46-0.14-0.84-0.41-1.12c-0.28-0.28-0.68-0.42-1.21-0.42c-0.37,0-0.73,0.1-1.07,0.3
			c-0.34,0.2-0.64,0.46-0.88,0.78c-0.24,0.32-0.4,0.66-0.47,1C79.36,106.12,79.35,106.28,79.35,106.45z"/>
		<path class="st1" d="M96.84,104.97c-0.16,0.22-0.36,0.44-0.6,0.65c0.18,0.21,0.32,0.45,0.42,0.72c0.1,0.26,0.15,0.54,0.15,0.83
			c0,0.15-0.02,0.32-0.05,0.51c-0.1,0.46-0.3,0.87-0.59,1.25s-0.67,0.68-1.12,0.9c-0.45,0.22-0.95,0.33-1.48,0.33h-5.18
			c-0.21,0-0.31-0.08-0.31-0.24c0-0.02,0-0.06,0.01-0.12l1.63-7.67c0.05-0.26,0.21-0.39,0.46-0.39h4.92c0.41,0,0.78,0.09,1.11,0.28
			c0.33,0.19,0.58,0.44,0.77,0.75c0.18,0.32,0.27,0.66,0.27,1.02c0,0.15-0.02,0.3-0.05,0.44C97.11,104.51,97,104.75,96.84,104.97z
			 M90.84,108.39h2.48c0.31,0,0.57-0.09,0.77-0.28s0.33-0.42,0.39-0.69c0.01-0.05,0.02-0.11,0.02-0.16c0-0.21-0.08-0.38-0.24-0.52
			c-0.16-0.14-0.34-0.2-0.55-0.2h-2.48L90.84,108.39z M94.86,104.02c0-0.18-0.07-0.31-0.21-0.4c-0.14-0.09-0.32-0.13-0.55-0.13
			h-2.22l-0.3,1.43h2.22c0.27,0,0.5-0.06,0.69-0.18c0.18-0.12,0.3-0.31,0.36-0.56C94.85,104.12,94.86,104.07,94.86,104.02z"/>
		<path class="st1" d="M106.29,101.99c0.07-0.08,0.13-0.13,0.17-0.16c0.05-0.03,0.09-0.05,0.14-0.05h1.96
			c0.06,0,0.12,0.02,0.16,0.06c0.05,0.04,0.07,0.09,0.07,0.16c0,0.03,0,0.06-0.01,0.08l-1.66,7.8c-0.03,0.19-0.15,0.29-0.34,0.29
			h-1.95c-0.16,0-0.25-0.07-0.25-0.2c0-0.01,0-0.04,0.01-0.09l0.88-4.14l-3.7,4.23c-0.07,0.08-0.12,0.13-0.16,0.15
			c-0.04,0.03-0.1,0.04-0.17,0.04H99.5c-0.15,0-0.23-0.06-0.23-0.19c0-0.02,0-0.05,0.01-0.1l1.66-7.8c0.02-0.09,0.06-0.16,0.13-0.21
			c0.07-0.05,0.14-0.08,0.22-0.08h1.95c0.06,0,0.12,0.02,0.16,0.05c0.05,0.04,0.07,0.09,0.07,0.16c0,0.03,0,0.06-0.01,0.08
			l-0.9,4.21L106.29,101.99z"/>
		<path class="st1" d="M116.38,107.43c0.08,0,0.13,0.03,0.16,0.09l0.72,1.4c0.03,0.06,0.04,0.11,0.04,0.16
			c0,0.08-0.06,0.17-0.18,0.25c-0.37,0.28-0.81,0.51-1.32,0.69c-0.51,0.18-1,0.28-1.47,0.28c-0.68,0-1.3-0.15-1.85-0.46
			c-0.55-0.31-0.97-0.73-1.28-1.28c-0.31-0.54-0.46-1.16-0.46-1.85c0-0.26,0.02-0.53,0.08-0.83c0.13-0.78,0.44-1.49,0.93-2.13
			c0.49-0.64,1.09-1.15,1.79-1.51s1.45-0.55,2.23-0.55c0.58,0,1.09,0.09,1.52,0.27c0.43,0.18,0.82,0.43,1.16,0.75
			c0.05,0.06,0.08,0.11,0.08,0.16c0,0.05-0.02,0.09-0.07,0.14l-1.18,1.38c-0.05,0.06-0.12,0.08-0.18,0.08
			c-0.05,0-0.1-0.02-0.14-0.05c-0.24-0.19-0.47-0.33-0.69-0.41c-0.23-0.08-0.47-0.12-0.74-0.12c-0.33,0-0.66,0.09-0.99,0.27
			c-0.33,0.18-0.61,0.43-0.85,0.75c-0.24,0.32-0.41,0.68-0.49,1.08c-0.04,0.19-0.06,0.36-0.06,0.52c0,0.31,0.06,0.58,0.19,0.82
			c0.13,0.24,0.3,0.42,0.53,0.55c0.23,0.13,0.49,0.19,0.79,0.19c0.26,0,0.52-0.05,0.77-0.16c0.25-0.11,0.51-0.25,0.79-0.42
			C116.25,107.45,116.31,107.43,116.38,107.43z"/>
	</g>
	<path class="st1" d="M50.87,85.34c-1.38-2.75-3.71-4.04-6.73-4.08c-3.53-0.04-7.06-0.1-10.59,0.02c-2.04,0.07-2.73-1.43-2.08-2.95
		c0.74-1.74,1.41-3.51,2.08-5.28c1-2.61,0.64-5.04-1.16-7.19c-1.15-1.37-2.2-1.37-3.46-0.1C25,69.69,21.16,73.72,17.08,77.5
		c-2.74,2.54-4.12,5.38-3.79,9.12c0.08,0.86,0.08,4.86,0.07,8.96h11.39c0.47-3.54,3.22-6.37,6.73-6.93c0.42-0.07,0.86-0.11,1.3-0.11
		c0.17,0,0.33,0.01,0.5,0.02c1.57-0.01,0.59-0.01,2.15,0c0.56,0,0.99,0.24,1.22,0.77c0.08,0.18,0.1,0.4,0.1,0.6
		c0.01,0.45,0,0.9,0,1.36c0,0.33,0,0.33,0.32,0.33c1.88,0,3.76,0,5.64,0c0.53,0,0.98,0.17,1.28,0.62c0.31,0.46,0.34,0.95,0.09,1.44
		c-0.26,0.51-0.71,0.77-1.28,0.77c-1.56,0-3.13,0-4.69,0c-0.03,0-0.05,0-0.08,0c-0.34,0-0.68,0.01-1.02,0
		c-0.2-0.01-0.28,0.04-0.28,0.26c0.01,1.3,0.01,2.6,0,3.9c0,0.23,0.08,0.27,0.29,0.27c0.33,0,0.67,0,1,0c1.59,0,3.17,0,4.76,0
		c0.72,0,1.25,0.43,1.42,1.12c0.18,0.74-0.35,1.72-1.46,1.72c-1.89-0.01-3.77,0-5.66,0c-0.33,0-0.33,0-0.33,0.34
		c0,0.53-0.01,1.06-0.02,1.59c-0.01,0.58-0.56,1.12-1.2,1.12c-1.58,0-0.61,0.01-2.19-0.01c-0.19,0.01-0.38,0.02-0.57,0.02
		c-0.29,0-0.57-0.02-0.85-0.04c-1.5-0.16-2.88-0.72-4.02-1.58c-0.13-0.1-0.26-0.2-0.38-0.31c-0.14-0.12-0.27-0.24-0.4-0.37
		c-0.04-0.04-0.08-0.07-0.11-0.11c-0.03-0.03-0.05-0.06-0.08-0.08c-0.03-0.03-0.07-0.07-0.1-0.1c-1.11-1.2-1.86-2.74-2.09-4.44
		h-11.4c-0.02,3.64-0.04,6.93-0.03,7.6c0.04,4.21,3.34,7.09,6.61,7.07l21.1-0.02c3.83-0.2,6.56-2.31,7.4-7.25l3.12-16.52
		C51.54,87.49,51.38,86.36,50.87,85.34z"/>
</g>
</svg>
