<svg xmlns="http://www.w3.org/2000/svg" xmlns:xlink="http://www.w3.org/1999/xlink" width="59.116" height="83.445" viewBox="0 0 59.116 83.445"><defs><linearGradient id="a" x1="1.654" y1="-0.524" x2="-0.038" y2="0.893" gradientUnits="objectBoundingBox"><stop offset="0.205" stop-color="#214578"/><stop offset="0.374" stop-color="#2f6095"/><stop offset="0.645" stop-color="#4387bd"/><stop offset="0.859" stop-color="#50a0d6"/><stop offset="0.989" stop-color="#55a9e0"/></linearGradient></defs><g transform="translate(-5021.226 1834.445)"><path d="M5021.226-1818.774v52.559A15.215,15.215,0,0,0,5036.442-1751h28.685a15.215,15.215,0,0,0,15.215-15.215v-52.559c0-.173-.02-15.5-.026-15.671h-59.064C5021.246-1834.273,5021.226-1818.947,5021.226-1818.774Z" fill="url(#a)"/><path d="M5069.6-1793.4a7.226,7.226,0,0,0-6.853-4.151c-3.6-.043-7.194-.1-10.785.023-2.078.069-2.776-1.461-2.117-3.01.755-1.772,1.437-3.576,2.123-5.377a6.88,6.88,0,0,0-1.184-7.32c-1.167-1.391-2.238-1.391-3.526-.106-4.011,4-7.921,8.111-12.074,11.958-2.788,2.581-4.195,5.475-3.857,9.287.056.626.075,2.9.077,5.665q6.241-.055,12.484-.109a.538.538,0,0,0,.538-.3,9.43,9.43,0,0,1,12.892-3.242c.405.247.792.525,1.187.789l1.212,1.19c.035.065.068.132.107.2.42.68.865,1.347,1.254,2.046a.9.9,0,0,1-.249,1.222,1.781,1.781,0,0,1-.823.232c-2.23.038-4.461.047-6.691.078a.55.55,0,0,0-.4.179c-.475.711-.924,1.44-1.387,2.173.476.723.938,1.443,1.425,2.146a.55.55,0,0,0,.4.172c1.937-.006,3.873-.027,5.809-.044.381,0,.764-.025,1.142,0a.978.978,0,0,1,.872,1.379,4.694,4.694,0,0,1-.35.733c-.324.536-.668,1.06-1,1.589q-.594.606-1.19,1.211c-.373.258-.738.531-1.121.772a9.4,9.4,0,0,1-10.472-.279,8.993,8.993,0,0,1-2.511-2.663.592.592,0,0,0-.594-.321q-6.282.066-12.565.12c-.011,2.088-.02,3.682-.015,4.131a7.052,7.052,0,0,0,6.734,7.2l21.484-.016c3.9-.208,6.684-2.354,7.533-7.382l3.176-16.829A7.421,7.421,0,0,0,5069.6-1793.4Z" fill="#fff"/></g></svg>