<svg xmlns="http://www.w3.org/2000/svg" width="17.001" height="17" viewBox="0 0 17.001 17">
  <g id="Group_224" data-name="Group 224" transform="translate(-4749.208 -2672.735)">
    <path id="Path_97" data-name="Path 97" d="M4766.209,2680.67v1.129c-.011.053-.025.107-.032.161-.038.289-.059.583-.115.869a8.4,8.4,0,0,1-2.748,4.8,8.233,8.233,0,0,1-4.125,1.978c-.3.052-.61.089-.915.132h-1.128c-.048-.01-.1-.023-.144-.031-.457-.076-.922-.119-1.369-.23a8.187,8.187,0,0,1-4.485-2.842,8.315,8.315,0,0,1-1.784-7.006,7.964,7.964,0,0,1,2.149-4.2,8.3,8.3,0,0,1,7.8-2.532,8.486,8.486,0,0,1,6.763,6.865C4766.129,2680.059,4766.166,2680.365,4766.209,2680.67Zm-8.5,7.666a7.1,7.1,0,1,0-7.1-7.1A7.123,7.123,0,0,0,4757.712,2688.336Z" fill="#de213c"/>
    <g id="Group_223" data-name="Group 223">
      <path id="Path_98" data-name="Path 98" d="M4757.651,2680.831a.7.7,0,1,0-.011,1.4h3.47a.956.956,0,0,0,.261-.03.7.7,0,0,0-.2-1.364C4760.7,2680.829,4757.783,2680.831,4757.651,2680.831Z" fill="#de213c"/>
      <path id="Path_99" data-name="Path 99" d="M4756.917,2681.492a.7.7,0,1,0,1.4.011v-4.469a.95.95,0,0,0-.03-.261.7.7,0,0,0-1.364.2C4756.915,2677.442,4756.917,2681.361,4756.917,2681.492Z" fill="#de213c"/>
    </g>
  </g>
</svg>
