<svg width="35" height="24" viewBox="0 0 35 24" fill="none" xmlns="http://www.w3.org/2000/svg">
<path d="M14.6645 23.7408C9.91987 23.7408 5.17509 23.7408 0.430457 23.7408C0.281766 23.7408 0.280991 23.7403 0.32549 23.5289C0.447823 22.9477 0.570931 22.367 0.693264 21.7858C0.852809 21.0279 1.01158 20.2698 1.17097 19.5118C1.32105 18.7993 1.47254 18.0875 1.62169 17.3744C1.75441 16.74 1.8831 16.1037 2.01629 15.4696C2.15568 14.8062 2.29956 14.145 2.43942 13.4818C2.57307 12.8477 2.703 12.2118 2.83634 11.5774C2.95697 11.0036 3.08054 10.4314 3.20132 9.85782C3.29776 9.40012 3.39095 8.94101 3.48754 8.48332C3.65531 7.68836 3.8288 6.89601 3.99207 6.09891C4.10308 5.55737 4.21798 5.01798 4.3324 4.47834C4.50869 3.64609 4.68234 2.81265 4.85693 1.97945C4.98422 1.37189 5.1126 0.764562 5.23695 0.155574C5.2599 0.0434673 5.29525 -0.000236552 5.37417 9.6239e-07C6.35051 0.00356368 7.32685 0.00237843 8.30318 0.00237843C16.8344 0.00237843 25.3655 0.00237843 33.8967 0.00237843C34.0334 0.00237843 34.0296 0.000481315 33.986 0.201419C33.8978 0.609469 33.814 1.01966 33.7288 1.42913C33.5771 2.15735 33.4272 2.88628 33.2737 3.61379C33.109 4.39403 32.9394 5.17165 32.7755 5.95236C32.6188 6.69887 32.4687 7.4487 32.3119 8.19497C32.1953 8.75005 32.0705 9.30085 31.9535 9.85568C31.8094 10.5381 31.6711 11.2235 31.5277 11.9061C31.3613 12.6975 31.1908 13.487 31.0247 14.2787C30.9247 14.7549 30.8323 15.2349 30.732 15.7111C30.6151 16.266 30.492 16.8177 30.374 17.3721C30.2768 17.8293 30.1839 18.2886 30.0876 18.7463C29.9653 19.3275 29.8403 19.9075 29.7188 20.4892C29.586 21.1236 29.4566 21.7597 29.3245 22.3943C29.2407 22.796 29.1527 23.1955 29.071 23.598C29.0488 23.7075 29.0122 23.7429 28.9376 23.7427C27.9123 23.7391 26.8868 23.7403 25.8615 23.7403C22.129 23.7408 18.3967 23.7408 14.6645 23.7408ZM9.14634 13.0322C9.14634 13.8785 9.14634 14.7247 9.14634 15.5712C9.14634 17.0227 9.14634 18.4741 9.14649 19.9254C9.14649 20.0755 9.14975 20.0802 9.24588 20.0807C9.44729 20.0814 9.64885 20.0847 9.85026 20.0802C11.0553 20.0534 12.2611 20.1382 13.4658 20.0353C13.6641 20.0185 13.8592 19.9681 14.0547 19.9225C14.3681 19.8491 14.6726 19.7201 14.9734 19.566C15.5322 19.2796 16.041 18.8535 16.497 18.2858C16.9992 17.6604 17.3977 16.8978 17.7101 16.0318C17.934 15.4109 18.0914 14.7494 18.2035 14.0604C18.2802 13.5892 18.3346 13.1108 18.3581 12.6306C18.3778 12.2275 18.383 11.8197 18.3745 11.4119C18.3636 10.8872 18.3348 10.3687 18.2782 9.85093C18.2266 9.37827 18.1483 8.91726 18.0441 8.46812C17.9094 7.88715 17.7323 7.33589 17.5143 6.8143C17.2758 6.24427 16.9884 5.74073 16.668 5.27877C16.4418 4.95266 16.1914 4.67501 15.9263 4.42728C15.5723 4.09642 15.1965 3.8418 14.7999 3.65773C14.5563 3.54467 14.3101 3.45062 14.0587 3.38554C13.7713 3.31096 13.4818 3.2428 13.1915 3.24113C11.4635 3.23044 9.73568 3.23448 8.00766 3.23353C7.87773 3.23353 7.87355 3.23163 7.83758 3.42188C7.76114 3.8266 7.68764 4.23252 7.61648 4.63938C7.54779 5.03128 7.48453 5.42532 7.41662 5.81745C7.38902 5.97659 7.39119 5.98632 7.49864 5.98656C8.00224 5.9868 8.50599 5.98656 9.00958 5.9868C9.14634 5.9868 9.14634 5.98704 9.14634 6.19843C9.14634 8.47643 9.14634 10.7544 9.14634 13.0322ZM23.8711 10.2108C23.8711 7.94867 23.8711 5.68682 23.8711 3.42473C23.8711 3.23662 23.871 3.23638 23.7465 3.23638C22.4809 3.23638 21.2153 3.23638 19.9498 3.23638C19.8428 3.23638 19.8423 3.23709 19.8423 3.40122C19.8422 4.23561 19.8422 5.06999 19.8423 5.90438C19.8423 6.07611 19.8426 6.07658 19.9524 6.07658C20.5697 6.07682 21.1871 6.07658 21.8043 6.07682C21.9149 6.07682 21.9175 6.08062 21.9175 6.24902C21.9177 9.86755 21.9177 13.4859 21.9175 17.1044C21.9175 17.2737 21.9113 17.2825 21.7975 17.2825C21.1389 17.2828 20.4802 17.2825 19.8217 17.2828C19.7003 17.2828 19.7 17.283 19.7 17.464C19.6998 18.0651 19.7 18.6663 19.7 19.2672C19.7 19.5045 19.7016 19.7418 19.6994 19.979C19.6986 20.0695 19.7205 20.1132 19.7808 20.1061C19.7961 20.1042 19.8118 20.1061 19.8273 20.1061C21.7204 20.1061 23.6137 20.1061 25.5069 20.1061C25.525 20.1061 25.543 20.1052 25.5611 20.1056C25.6111 20.1073 25.6388 20.0752 25.6579 19.9992C25.7194 19.7524 25.787 19.509 25.8528 19.2646C26.0205 18.6409 26.1875 18.0165 26.3578 17.3942C26.3832 17.3015 26.3637 17.2804 26.3086 17.283C26.2854 17.2842 26.2621 17.283 26.2389 17.283C25.5002 17.283 24.7616 17.283 24.0227 17.283C23.9017 17.283 23.8772 17.2462 23.8719 17.0562C23.8708 17.0168 23.8716 16.9771 23.8716 16.9377C23.8711 14.6953 23.8711 12.4529 23.8711 10.2108Z" fill="#F6A602"/>
<path d="M11.1436 11.6694C11.1436 9.85436 11.1436 8.03927 11.1436 6.22418C11.1436 6.0318 11.1437 6.03156 11.2667 6.03156C11.7755 6.03156 12.2842 6.02776 12.7931 6.03322C13.1627 6.03702 13.5245 6.12087 13.8806 6.28119C14.233 6.43985 14.5621 6.66739 14.8641 6.98423C15.1615 7.29609 15.4345 7.65189 15.6466 8.10293C15.8824 8.60432 16.042 9.15821 16.1431 9.75864C16.26 10.4529 16.2972 11.1569 16.2882 11.8685C16.2828 12.3022 16.2578 12.7335 16.2056 13.1625C16.1423 13.6812 16.046 14.1797 15.8925 14.6526C15.6764 15.3184 15.3621 15.8528 14.9683 16.2815C14.6914 16.5829 14.394 16.8242 14.072 16.9936C13.9135 17.077 13.751 17.1335 13.5884 17.1933C13.111 17.3691 12.626 17.3273 12.1425 17.3306C11.8455 17.3328 11.5485 17.3313 11.2515 17.3309C11.1473 17.3306 11.1437 17.3249 11.1437 17.1622C11.1436 15.3315 11.1436 13.5005 11.1436 11.6694Z" fill="#F6A602"/>
</svg>
