<svg width="35" height="24" viewBox="0 0 35 24" fill="none" xmlns="http://www.w3.org/2000/svg">
<path d="M20.2027 5.87335e-05C24.9522 5.87335e-05 29.7015 5.87335e-05 34.451 5.87335e-05C34.4743 5.87335e-05 34.4976 0.000534411 34.5209 5.87335e-05C34.5591 -0.000892623 34.5663 0.00909499 34.5521 0.0756899C34.4046 0.770655 34.262 1.46824 34.1162 2.16416C34.0105 2.66885 33.9013 3.17188 33.7943 3.67586C33.6792 4.21742 33.5634 4.75874 33.4502 5.30149C33.3403 5.82901 33.235 6.35892 33.1244 6.88621C33.0287 7.34239 32.9266 7.79523 32.8309 8.25141C32.7203 8.77822 32.6196 9.30979 32.5028 9.83327C32.4397 10.1158 32.3807 10.4003 32.3194 10.6835C32.2177 11.1533 32.1242 11.6273 32.0254 12.0987C31.9458 12.4797 31.8593 12.8574 31.7835 13.2401C31.7061 13.6313 31.6197 14.0183 31.5395 14.4081C31.4464 14.8612 31.3477 15.3124 31.2518 15.7643C31.1393 16.2942 31.0369 16.8293 30.9207 17.3573C30.8584 17.6403 30.7993 17.9248 30.7373 18.2078C30.6763 18.4866 30.6171 18.7663 30.5583 19.0462C30.4797 19.4203 30.4025 19.7949 30.3241 20.169C30.2071 20.7263 30.0897 21.2833 29.9725 21.8403C29.8686 22.3339 29.7624 22.8259 29.6625 23.3214C29.6393 23.4372 29.608 23.5492 29.5905 23.6674C29.5826 23.7205 29.5641 23.7409 29.5316 23.7416C29.5083 23.7421 29.4851 23.7421 29.4618 23.7421C19.9578 23.7421 10.4537 23.7421 0.949673 23.7421C0.931504 23.7421 0.91349 23.7411 0.895322 23.7423C0.852772 23.745 0.834915 23.735 0.852307 23.6546C0.976072 23.0797 1.09611 22.5027 1.21708 21.9264C1.32066 21.4329 1.42392 20.9389 1.52735 20.4454C1.62999 19.9557 1.73295 19.4657 1.83575 18.976C1.92908 18.5318 2.0252 18.0887 2.11542 17.643C2.18593 17.294 2.25876 16.9463 2.33267 16.5993C2.42243 16.1774 2.51312 15.7557 2.60117 15.3328C2.7181 14.7713 2.83643 14.2105 2.95336 13.6489C3.05756 13.1478 3.16487 12.6476 3.27046 12.147C3.3832 11.6123 3.49625 11.0776 3.60589 10.5413C3.69626 10.0992 3.79456 9.6606 3.88649 9.21893C3.99954 8.67618 4.11259 8.13368 4.22657 7.59164C4.32394 7.12857 4.42146 6.66525 4.52193 6.20337C4.64818 5.62233 4.77086 5.03939 4.89245 4.45573C4.9923 3.97649 5.0819 3.49224 5.18797 3.01657C5.26002 2.69358 5.32478 2.36727 5.39574 2.04405C5.47836 1.66778 5.5546 1.28843 5.63302 0.910031C5.69188 0.625813 5.76191 0.346587 5.80788 0.0561855C5.8144 0.0148015 5.83661 0.00267055 5.8613 0.00148135C5.88972 5.43205e-05 5.91813 0.000534876 5.94671 0.000534876C10.6987 5.9198e-05 15.4507 5.87335e-05 20.2027 5.87335e-05ZM9.0118 13.0681C9.0118 15.3611 9.0118 17.6541 9.01195 19.9471C9.01195 20.141 9.01614 20.1467 9.14317 20.1467C10.2142 20.1467 11.2852 20.1503 12.3562 20.1443C12.6188 20.1429 12.881 20.1624 13.1446 20.111C13.3481 20.0715 13.5554 20.0779 13.7605 20.0316C13.9512 19.9885 14.1405 19.9376 14.3278 19.8717C14.6412 19.7616 14.9455 19.6082 15.2429 19.4177C15.6932 19.1292 16.1048 18.7458 16.4789 18.2694C16.8276 17.8254 17.1225 17.3066 17.3803 16.7342C17.596 16.2549 17.774 15.7476 17.9156 15.2096C18.005 14.87 18.0802 14.5239 18.1356 14.1657C18.1744 13.9143 18.2192 13.6637 18.2462 13.4097C18.2828 13.0638 18.3102 12.714 18.3234 12.3644C18.347 11.7365 18.338 11.1071 18.2926 10.4819C18.2609 10.0452 18.2114 9.6128 18.1358 9.18564C18.0867 8.90856 18.0379 8.63171 17.9735 8.36319C17.8589 7.88608 17.716 7.4292 17.5427 6.99348C17.169 6.05378 16.6986 5.25654 16.1069 4.62507C15.6828 4.17271 15.2227 3.84068 14.7328 3.6007C14.3874 3.4316 14.032 3.32362 13.6736 3.25132C13.4105 3.19828 13.1446 3.16664 12.8785 3.16569C12.3792 3.16355 11.88 3.16356 11.3806 3.16356C10.2656 3.16332 9.15062 3.16403 8.03565 3.16213C7.96499 3.16189 7.92229 3.18092 7.90428 3.30531C7.86142 3.60046 7.80738 3.89182 7.75737 4.18436C7.70364 4.4995 7.64883 4.81392 7.59556 5.12929C7.55503 5.36903 7.51963 5.61116 7.47506 5.84923C7.4454 6.00763 7.45161 6.0326 7.55767 6.03284C8.00257 6.03332 8.44763 6.03308 8.89253 6.03308C9.01195 6.03308 9.01211 6.03332 9.01211 6.21313C9.0118 8.49805 9.0118 10.7832 9.0118 13.0681ZM23.1392 17.2384C23.1603 17.1942 23.1676 17.1732 23.1782 17.1575C23.6054 16.5161 24.0324 15.8749 24.4602 15.2346C24.7758 14.7622 25.0905 14.2885 25.3955 13.8C25.5879 13.4917 25.7754 13.1761 25.9636 12.8617C26.2563 12.3722 26.5288 11.8568 26.7793 11.3155C26.9809 10.88 27.1363 10.4038 27.2564 9.90343C27.3387 9.56023 27.3984 9.20561 27.4365 8.8441C27.4708 8.51802 27.4529 8.18862 27.4606 7.86064C27.473 7.32645 27.3958 6.81866 27.2745 6.32491C27.1348 5.75576 26.9267 5.25011 26.6698 4.78419C26.3707 4.24168 26.0213 3.80477 25.6045 3.49677C25.3354 3.29793 25.0523 3.16332 24.7599 3.06319C24.4966 2.97305 24.2304 2.93428 23.9638 2.91216C23.7322 2.89313 23.4998 2.90027 23.2667 2.93095C22.9915 2.96734 22.7201 3.03012 22.4531 3.1293C22.1078 3.25774 21.774 3.44421 21.4577 3.69322C21.0886 3.98386 20.7324 4.30827 20.3991 4.68929C20.1548 4.96851 19.9273 5.27628 19.7238 5.62519C19.684 5.69345 19.6832 5.74268 19.7244 5.80547C20.1314 6.42623 20.5383 7.04747 20.9437 7.6706C20.9891 7.74029 21.0255 7.73791 21.0676 7.67013C21.103 7.61329 21.1392 7.55692 21.1776 7.50483C21.4953 7.07387 21.8466 6.72067 22.2202 6.41196C22.601 6.0973 23.0033 5.88871 23.431 5.82925C23.7611 5.78335 24.0928 5.80952 24.4112 6.00074C24.9584 6.32943 25.2947 6.92165 25.3778 7.81664C25.4112 8.17577 25.3851 8.54109 25.3146 8.89214C25.2202 9.3633 25.0728 9.79498 24.8845 10.1934C24.7093 10.5639 24.5206 10.9176 24.324 11.2622C24.0813 11.6877 23.8333 12.1056 23.5783 12.5135C23.2749 12.9987 22.9649 13.4739 22.652 13.945C22.0338 14.8755 21.4198 15.8123 20.8035 16.7456C20.6072 17.0429 20.4091 17.3369 20.2128 17.6342C20.1764 17.6891 20.1485 17.7469 20.1488 17.8387C20.1517 18.5634 20.1514 19.2881 20.1491 20.0128C20.1488 20.1165 20.1702 20.1607 20.2382 20.1479C20.2561 20.1445 20.2744 20.1474 20.2926 20.1474C22.6208 20.1474 24.9491 20.1474 27.2775 20.1474C27.2981 20.1474 27.3189 20.1453 27.3396 20.1476C27.3915 20.1533 27.4205 20.1158 27.4379 20.0425C27.5207 19.6915 27.6048 19.3411 27.6887 18.9908C27.7797 18.611 27.871 18.2316 27.9618 17.8518C28.0007 17.6891 28.0396 17.5267 28.0767 17.363C28.0958 17.2791 28.0861 17.2215 28.0154 17.2305C27.9898 17.2339 27.9637 17.231 27.9378 17.231C26.3804 17.2336 24.8231 17.2365 23.2657 17.2391C23.23 17.2386 23.1943 17.2384 23.1392 17.2384Z" fill="#E74182"/>
<path d="M11.0983 11.6945C11.0983 9.87712 11.0983 8.05979 11.0983 6.24223C11.0983 6.07313 11.0984 6.07265 11.209 6.07265C11.6823 6.07241 12.1556 6.0786 12.629 6.07075C13.0282 6.06409 13.4205 6.13353 13.804 6.29907C14.2909 6.50932 14.7302 6.85681 15.1078 7.37958C15.3467 7.71017 15.5605 8.07121 15.7236 8.49837C15.8366 8.79448 15.9248 9.10795 15.9938 9.43403C16.0627 9.7601 16.1011 10.0959 16.1411 10.433C16.2177 11.077 16.206 11.7249 16.1871 12.3697C16.1744 12.8033 16.1265 13.2392 16.0498 13.6607C15.9257 14.3425 15.7315 14.9747 15.4265 15.5141C15.2384 15.8469 15.0165 16.1221 14.7769 16.3666C14.5639 16.5842 14.3362 16.7561 14.1 16.901C13.9287 17.0061 13.7501 17.0803 13.5691 17.1393C12.7745 17.3988 11.9688 17.2739 11.1677 17.3058C11.0955 17.3086 11.0977 17.2466 11.0977 17.1697C11.0983 15.6968 11.0981 14.2239 11.0981 12.7509C11.0983 12.3994 11.0983 12.0469 11.0983 11.6945Z" fill="#E74182"/>
</svg>
