<svg xmlns="http://www.w3.org/2000/svg" width="64.556" height="42.5" viewBox="0 0 64.556 42.5">
  <g id="Group_417" data-name="Group 417" transform="translate(-5936.124 -4977.141)">
    <rect id="Rectangle_164" data-name="Rectangle 164" width="64.056" height="42" rx="9.011" transform="translate(5936.374 4977.391)" fill="#e8e8e8" stroke="#d2d1d1" stroke-miterlimit="10" stroke-width="0.5"/>
    <path id="Path_147" data-name="Path 147" d="M5985.493,5010.391h-12.306v-1.839h2.445l-2.825-7.014h-.024l-4.381,8.847-4.364-8.848-.023,0-2.845,7.015h2.444v.111l0,1.725h-12.305v-1.845c.031,0,.062.007.093.007.652,0,1.3,0,1.956,0a.128.128,0,0,0,.141-.1q1.338-3.321,2.679-6.642,1.775-4.4,3.554-8.807,1.318-3.265,2.635-6.531c.01-.024.021-.047.038-.085l5.995,12.535,6.014-12.537c.022.052.037.085.05.118l2.8,6.944q1.819,4.515,3.637,9.032,1.2,2.985,2.4,5.971a.134.134,0,0,0,.148.1c.641,0,1.282,0,1.922,0h.117v.479Q5985.491,5009.712,5985.493,5010.391Z" fill="#0065b0"/>
  </g>
</svg>
