<svg xmlns="http://www.w3.org/2000/svg" width="64.556" height="42.5" viewBox="0 0 64.556 42.5">
  <g id="Group_411" data-name="Group 411" transform="translate(-5301.534 -4977.141)">
    <rect id="Rectangle_158" data-name="Rectangle 158" width="64.056" height="42" rx="9.011" transform="translate(5301.784 4977.391)" fill="#e8e8e8" stroke="#d2d1d1" stroke-miterlimit="10" stroke-width="0.5"/>
    <path id="Path_141" data-name="Path 141" d="M5350.9,5010.391H5338.6v-1.839h2.445l-2.826-7.014h-.023l-4.382,8.847-4.363-8.848-.023,0-2.845,7.015h2.444c0,.044,0,.077,0,.111l0,1.725h-12.306v-1.845c.031,0,.062.007.093.007.653,0,1.305,0,1.957,0a.129.129,0,0,0,.141-.1q1.337-3.321,2.678-6.642l3.555-8.807q1.317-3.265,2.635-6.531c.009-.024.021-.047.037-.085l6,12.535,6.015-12.537.05.118,2.8,6.944,3.636,9.032q1.2,2.985,2.4,5.971a.134.134,0,0,0,.148.1c.641,0,1.282,0,1.923,0h.117c0,.167,0,.323,0,.479Q5350.9,5009.712,5350.9,5010.391Z" fill="#6ebcbb"/>
  </g>
</svg>
