<svg xmlns="http://www.w3.org/2000/svg" width="64.556" height="42.5" viewBox="0 0 64.556 42.5">
  <g id="Group_405" data-name="Group 405" transform="translate(-4666.945 -4977.141)">
    <rect id="Rectangle_152" data-name="Rectangle 152" width="64.056" height="42" rx="9.011" transform="translate(4667.195 4977.391)" fill="#e8e8e8" stroke="#d2d1d1" stroke-miterlimit="10" stroke-width="0.5"/>
    <path id="Path_135" data-name="Path 135" d="M4716.314,5010.391h-12.305v-1.839h2.445l-2.826-7.014h-.023l-4.382,8.847-4.363-8.848-.024,0-2.844,7.015h2.443v.111l0,1.725h-12.305v-1.845c.031,0,.062.007.093.007.652,0,1.3,0,1.957,0a.126.126,0,0,0,.14-.1q1.338-3.321,2.679-6.642,1.778-4.4,3.554-8.807l2.636-6.531c.009-.024.02-.047.037-.085l6,12.535,6.014-12.537c.022.052.037.085.05.118q1.4,3.473,2.8,6.944l3.636,9.032q1.2,2.985,2.4,5.971a.133.133,0,0,0,.148.1c.641,0,1.282,0,1.923,0h.116v.479Q4716.313,5009.712,4716.314,5010.391Z" fill="#0065b0"/>
  </g>
</svg>
