<svg xmlns="http://www.w3.org/2000/svg" width="64.556" height="42.5" viewBox="0 0 64.556 42.5">
  <g id="Group_407" data-name="Group 407" transform="translate(-4878.475 -4977.141)">
    <rect id="Rectangle_154" data-name="Rectangle 154" width="64.056" height="42" rx="9.011" transform="translate(4878.725 4977.391)" fill="#e8e8e8" stroke="#d2d1d1" stroke-miterlimit="10" stroke-width="0.5"/>
    <path id="Path_137" data-name="Path 137" d="M4927.844,5010.391h-12.306v-1.839h2.445l-2.825-7.014h-.024l-4.381,8.847-4.364-8.848-.023,0-2.845,7.015h2.444v.111l0,1.725h-12.3v-1.845c.031,0,.062.007.093.007.652,0,1.3,0,1.956,0a.128.128,0,0,0,.141-.1q1.338-3.321,2.679-6.642l3.554-8.807q1.318-3.265,2.635-6.531c.01-.024.021-.047.038-.085l6,12.535,6.014-12.537c.022.052.037.085.05.118q1.4,3.473,2.8,6.944,1.82,4.515,3.637,9.032,1.2,2.985,2.4,5.971a.134.134,0,0,0,.148.1c.641,0,1.282,0,1.922,0h.117v.479Q4927.841,5009.712,4927.844,5010.391Z" fill="#8da4cb"/>
  </g>
</svg>
