<svg xmlns="http://www.w3.org/2000/svg" width="64.556" height="42.5" viewBox="0 0 64.556 42.5">
  <g id="Group_410" data-name="Group 410" transform="translate(-5195.77 -4977.141)">
    <rect id="Rectangle_157" data-name="Rectangle 157" width="64.056" height="42" rx="9.011" transform="translate(5196.02 4977.391)" fill="#e8e8e8" stroke="#d2d1d1" stroke-miterlimit="10" stroke-width="0.5"/>
    <path id="Path_140" data-name="Path 140" d="M5245.139,5010.391h-12.306v-1.839h2.445l-2.826-7.014h-.023l-4.382,8.847-4.363-8.848-.023,0-2.845,7.015h2.444v.111l0,1.725h-12.306v-1.845c.031,0,.062.007.093.007.653,0,1.305,0,1.957,0a.128.128,0,0,0,.141-.1q1.337-3.321,2.678-6.642,1.777-4.4,3.555-8.807,1.317-3.265,2.635-6.531c.01-.024.021-.047.038-.085l5.994,12.535,6.015-12.537.05.118,2.8,6.944,3.636,9.032q1.2,2.985,2.4,5.971a.136.136,0,0,0,.149.1c.64,0,1.281,0,1.922,0h.117c0,.167,0,.323,0,.479Q5245.137,5009.712,5245.139,5010.391Z" fill="#e27b0d"/>
  </g>
</svg>
