<svg width="35" height="30" viewBox="0 0 35 30" fill="none" xmlns="http://www.w3.org/2000/svg">
<path fill-rule="evenodd" clip-rule="evenodd" d="M22.7842 0.138839C22.5288 0.226469 22.0482 0.657887 21.5912 1.20954C20.9569 1.97532 20.561 2.71584 19.2783 5.53554C18.4271 7.40671 17.714 8.93754 17.6937 8.93754C17.6734 8.93754 17.053 7.5413 16.315 5.83461C14.8513 2.45011 14.6815 2.1129 14.0126 1.26098C13.1651 0.181757 12.1488 -0.152911 11.1824 0.328753C10.639 0.599717 9.74198 1.66503 9.19545 2.68847C8.50819 3.97555 1.93922 17.7941 1.87468 18.0884C1.81891 18.3432 1.98271 18.3585 4.76159 18.3585H7.70751L10.1825 13.2368C11.5437 10.4198 12.7265 8.02565 12.811 7.91634C12.9347 7.75604 13.2099 8.254 14.2346 10.4924C14.9332 12.0186 15.504 13.353 15.5033 13.4576C15.5024 13.5623 14.8597 14.9602 14.0752 16.564L12.6488 19.48L6.83189 19.5189L1.01498 19.5578L0.507426 20.6404L0 21.7231L5.86692 21.762L11.7338 21.8008L9.84738 25.7131C8.80984 27.8649 7.93184 29.7161 7.89625 29.8267C7.84299 29.9926 8.3548 30.021 10.8057 29.9878L13.7797 29.9477L15.7691 25.8354L17.7584 21.7231L26.3793 21.6483L35 21.5736L30.5345 11.7788C27.537 5.20371 25.8896 1.74354 25.5229 1.2523C24.6738 0.115062 23.8413 -0.223493 22.7842 0.138839ZM27.2332 13.6752L30.0389 19.48L27.2208 19.5202C25.6707 19.5424 23.1334 19.5424 21.5823 19.5202L18.7621 19.48L21.3432 13.9471C24.1973 7.82916 24.2695 7.68201 24.3623 7.79297C24.3982 7.83559 25.69 10.4827 27.2332 13.6752Z" fill="#011E66"/>
</svg>
