<svg xmlns="http://www.w3.org/2000/svg" xmlns:xlink="http://www.w3.org/1999/xlink" width="121.618" height="47.9" viewBox="0 0 121.618 47.9"><defs><linearGradient id="a" x1="1.289" y1="-0.25" x2="-0.126" y2="1.249" gradientUnits="objectBoundingBox"><stop offset="0.205" stop-color="#39568a"/><stop offset="0.447" stop-color="#4a79ab"/><stop offset="0.687" stop-color="#5d99ca"/><stop offset="0.875" stop-color="#6baede"/><stop offset="0.988" stop-color="#71b6e5"/></linearGradient></defs><g transform="translate(-13.242 -11)"><path d="M61.86,44.5a.537.537,0,0,1-.19.3.568.568,0,0,1-.33.11H58.58a.333.333,0,0,1-.25-.09.294.294,0,0,1-.09-.22.251.251,0,0,1,.01-.1l2.77-13.03a.472.472,0,0,1,.5-.42h8.32a.3.3,0,0,1,.25.09.357.357,0,0,1,.08.23c0,.03-.01.07-.02.14l-.52,2.43a.57.57,0,0,1-.18.31.517.517,0,0,1-.32.11H64.01Z"/><path d="M70.23,35.77a7.054,7.054,0,0,1,2.62-2.13,7.733,7.733,0,0,1,3.4-.75,5.255,5.255,0,0,1,2.59.63,4.489,4.489,0,0,1,1.77,1.74,4.944,4.944,0,0,1,.63,2.48,6.2,6.2,0,0,1-.14,1.24,7.827,7.827,0,0,1-1.43,3.24,7.043,7.043,0,0,1-2.58,2.12,7.5,7.5,0,0,1-3.34.74,5.27,5.27,0,0,1-2.62-.64,4.614,4.614,0,0,1-1.79-1.77,4.972,4.972,0,0,1-.64-2.52,5.809,5.809,0,0,1,.12-1.17A7.718,7.718,0,0,1,70.23,35.77Zm1.93,3.92a2.528,2.528,0,0,0,.26,1.15,1.951,1.951,0,0,0,.75.81,2.178,2.178,0,0,0,1.16.3,2.969,2.969,0,0,0,1.5-.41,3.641,3.641,0,0,0,1.19-1.09,3.879,3.879,0,0,0,.65-1.47,3.764,3.764,0,0,0,.08-.71,2.524,2.524,0,0,0-.25-1.15,1.846,1.846,0,0,0-.74-.8,2.231,2.231,0,0,0-1.15-.29,2.949,2.949,0,0,0-1.49.4,3.862,3.862,0,0,0-1.2,1.08,3.751,3.751,0,0,0-.66,1.47A2.418,2.418,0,0,0,72.16,39.69Z"/><path d="M93.92,33.26c0,.03-.01.07-.02.14l-.51,2.42a.556.556,0,0,1-.2.37.529.529,0,0,1-.3.11H89.65l-1.71,8.01a.777.777,0,0,1-.22.42.583.583,0,0,1-.41.17H84.66c-.23,0-.34-.12-.34-.36a.755.755,0,0,1,.03-.23l1.71-8.01H82.89c-.23,0-.35-.1-.35-.3,0-.03.01-.08.02-.16l.5-2.37a.7.7,0,0,1,.19-.33.459.459,0,0,1,.33-.15L93.62,33C93.82,33.01,93.92,33.09,93.92,33.26Z"/><path d="M95.35,35.77a7.054,7.054,0,0,1,2.62-2.13,7.733,7.733,0,0,1,3.4-.75,5.255,5.255,0,0,1,2.59.63,4.489,4.489,0,0,1,1.77,1.74,4.944,4.944,0,0,1,.63,2.48,6.2,6.2,0,0,1-.14,1.24,7.827,7.827,0,0,1-1.43,3.24,7.043,7.043,0,0,1-2.58,2.12,7.5,7.5,0,0,1-3.34.74,5.27,5.27,0,0,1-2.62-.64,4.614,4.614,0,0,1-1.79-1.77,4.972,4.972,0,0,1-.64-2.52,5.809,5.809,0,0,1,.12-1.17A7.718,7.718,0,0,1,95.35,35.77Zm1.93,3.92a2.528,2.528,0,0,0,.26,1.15,1.951,1.951,0,0,0,.75.81,2.178,2.178,0,0,0,1.16.3,2.969,2.969,0,0,0,1.5-.41,3.641,3.641,0,0,0,1.19-1.09,3.879,3.879,0,0,0,.65-1.47,3.764,3.764,0,0,0,.08-.71,2.524,2.524,0,0,0-.25-1.15,1.846,1.846,0,0,0-.74-.8,2.231,2.231,0,0,0-1.15-.29,2.949,2.949,0,0,0-1.49.4,3.862,3.862,0,0,0-1.2,1.08,3.751,3.751,0,0,0-.66,1.47A2.808,2.808,0,0,0,97.28,39.69Z"/><path d="M120.12,37.55a5.978,5.978,0,0,1-.85.92,3.446,3.446,0,0,1,.59,1.02,3.359,3.359,0,0,1,.21,1.17,3.863,3.863,0,0,1-.08.72,4.26,4.26,0,0,1-.84,1.77,4.522,4.522,0,0,1-1.59,1.27,4.768,4.768,0,0,1-2.11.47h-7.36c-.3,0-.45-.11-.45-.34,0-.03.01-.09.02-.17l2.31-10.88a.608.608,0,0,1,.65-.55h6.98a3.057,3.057,0,0,1,1.57.4,2.8,2.8,0,0,1,1.09,1.07,2.842,2.842,0,0,1,.39,1.45,2.563,2.563,0,0,1-.07.62A2.471,2.471,0,0,1,120.12,37.55Zm-8.51,4.86h3.51a1.529,1.529,0,0,0,1.09-.4,1.828,1.828,0,0,0,.56-.98.908.908,0,0,0,.03-.23.951.951,0,0,0-.33-.74,1.159,1.159,0,0,0-.78-.29h-3.51Zm5.7-6.21a.622.622,0,0,0-.29-.56,1.491,1.491,0,0,0-.79-.18h-3.15l-.43,2.03h3.14a1.73,1.73,0,0,0,.97-.26,1.229,1.229,0,0,0,.51-.79A.751.751,0,0,0,117.31,36.2Z"/><path d="M123.85,35.77a7.054,7.054,0,0,1,2.62-2.13,7.764,7.764,0,0,1,3.4-.75,5.255,5.255,0,0,1,2.59.63,4.555,4.555,0,0,1,1.77,1.74,4.944,4.944,0,0,1,.63,2.48,6.2,6.2,0,0,1-.14,1.24,7.827,7.827,0,0,1-1.43,3.24,7.043,7.043,0,0,1-2.58,2.12,7.468,7.468,0,0,1-3.34.74,5.27,5.27,0,0,1-2.62-.64,4.614,4.614,0,0,1-1.79-1.77,4.972,4.972,0,0,1-.64-2.52,5.809,5.809,0,0,1,.12-1.17A7.717,7.717,0,0,1,123.85,35.77Zm1.93,3.92a2.528,2.528,0,0,0,.26,1.15,1.951,1.951,0,0,0,.75.81,2.178,2.178,0,0,0,1.16.3,2.969,2.969,0,0,0,1.5-.41,3.641,3.641,0,0,0,1.19-1.09,3.879,3.879,0,0,0,.65-1.47,3.764,3.764,0,0,0,.08-.71,2.524,2.524,0,0,0-.25-1.15,1.846,1.846,0,0,0-.74-.8,2.243,2.243,0,0,0-1.16-.29,2.949,2.949,0,0,0-1.49.4,3.862,3.862,0,0,0-1.2,1.08,3.751,3.751,0,0,0-.66,1.47A2.756,2.756,0,0,0,125.78,39.69Z"/><path d="M61.93,53.61a.16.16,0,0,1,.16.09l.72,1.39a.343.343,0,0,1,.04.16.335.335,0,0,1-.18.25,4.84,4.84,0,0,1-1.32.69,4.434,4.434,0,0,1-1.47.28,3.707,3.707,0,0,1-1.85-.46,3.324,3.324,0,0,1-1.28-1.27,3.681,3.681,0,0,1-.46-1.85,4.151,4.151,0,0,1,.08-.83,4.738,4.738,0,0,1,.93-2.13,5.3,5.3,0,0,1,1.79-1.51,4.747,4.747,0,0,1,2.23-.55,3.931,3.931,0,0,1,1.52.27,3.853,3.853,0,0,1,1.16.75.245.245,0,0,1,.08.16.189.189,0,0,1-.07.14l-1.18,1.38a.269.269,0,0,1-.18.08.239.239,0,0,1-.14-.05,2.55,2.55,0,0,0-.69-.41,2.209,2.209,0,0,0-.74-.12,2.051,2.051,0,0,0-.99.27,2.77,2.77,0,0,0-1.34,1.83,2.594,2.594,0,0,0-.06.52,1.683,1.683,0,0,0,.19.82,1.339,1.339,0,0,0,.53.55,1.566,1.566,0,0,0,.79.19,1.9,1.9,0,0,0,.77-.16,6.854,6.854,0,0,0,.79-.42A.252.252,0,0,1,61.93,53.61Z"/><path d="M71.86,53.62a.176.176,0,0,1,.17.1l.7,1.17a.381.381,0,0,1,.06.19.329.329,0,0,1-.17.25,5.861,5.861,0,0,1-1.68.91,5.733,5.733,0,0,1-1.63.23,3.621,3.621,0,0,1-1.82-.46,3.375,3.375,0,0,1-1.29-1.28,3.565,3.565,0,0,1-.47-1.81,3.739,3.739,0,0,1,.07-.75,5.377,5.377,0,0,1,.93-2.25,4.864,4.864,0,0,1,1.77-1.51,4.994,4.994,0,0,1,2.3-.54,3.142,3.142,0,0,1,1.47.37,2.988,2.988,0,0,1,1.19,1.13,3.567,3.567,0,0,1,.47,1.88,5.07,5.07,0,0,1-.07.86,1.356,1.356,0,0,1-.18.53.672.672,0,0,1-.35.24,2.445,2.445,0,0,1-.61.06H68.06a1.741,1.741,0,0,0,.23.78,1.445,1.445,0,0,0,.55.52,1.661,1.661,0,0,0,.78.18,3.956,3.956,0,0,0,.83-.08,1.93,1.93,0,0,0,.55-.2,3.38,3.38,0,0,0,.46-.31c.1-.07.18-.13.23-.16A.286.286,0,0,1,71.86,53.62ZM69.4,50.2a3.168,3.168,0,0,0-.84.87h3.32a1.237,1.237,0,0,0-.46-.89,1.558,1.558,0,0,0-.98-.32A1.77,1.77,0,0,0,69.4,50.2Z"/><path d="M78.28,47.95h1.39a.192.192,0,0,1,.2.12.7.7,0,0,1,.05.25c0,.09.01.15.01.18l.03.56a3.84,3.84,0,0,1,2.69-1.19,3.214,3.214,0,0,1,1.65.42,2.935,2.935,0,0,1,1.12,1.17,3.6,3.6,0,0,1,.4,1.74,5.268,5.268,0,0,1-.12,1.09,5.8,5.8,0,0,1-.92,2.14,4.747,4.747,0,0,1-1.67,1.48,4.677,4.677,0,0,1-2.25.54,2.788,2.788,0,0,1-1.15-.24,2.315,2.315,0,0,1-.85-.62l-.64,3.02a.326.326,0,0,1-.36.29H75.95a.331.331,0,0,1-.19-.05.168.168,0,0,1-.07-.15.44.44,0,0,1,.01-.09l2.2-10.35A.366.366,0,0,1,78.28,47.95Zm1.07,4.68a1.774,1.774,0,0,0,.18.8,1.386,1.386,0,0,0,.53.57,1.636,1.636,0,0,0,.86.21,2.4,2.4,0,0,0,1.12-.27,2.685,2.685,0,0,0,.87-.74,2.8,2.8,0,0,0,.48-1.05,2.625,2.625,0,0,0,.06-.54,1.559,1.559,0,0,0-.41-1.12,1.633,1.633,0,0,0-1.21-.42,2.088,2.088,0,0,0-1.07.3,2.981,2.981,0,0,0-.88.78,2.534,2.534,0,0,0-.47,1A1.543,1.543,0,0,0,79.35,52.63Z"/><path d="M96.84,51.15a3.984,3.984,0,0,1-.6.65,2.35,2.35,0,0,1,.42.72,2.305,2.305,0,0,1,.15.83,3.364,3.364,0,0,1-.05.51,3.131,3.131,0,0,1-.59,1.25,3.188,3.188,0,0,1-1.12.9,3.344,3.344,0,0,1-1.48.33H88.39c-.21,0-.31-.08-.31-.24a.682.682,0,0,1,.01-.12l1.63-7.67a.431.431,0,0,1,.46-.39H95.1a2.181,2.181,0,0,1,1.11.28,2.08,2.08,0,0,1,.77.76,2.049,2.049,0,0,1,.27,1.02,2.118,2.118,0,0,1-.05.44A2.488,2.488,0,0,1,96.84,51.15Zm-6,3.42h2.48a1.075,1.075,0,0,0,.77-.28,1.329,1.329,0,0,0,.39-.69,1,1,0,0,0,.02-.16.659.659,0,0,0-.24-.52.805.805,0,0,0-.55-.21H91.23Zm4.02-4.37a.441.441,0,0,0-.21-.4,1,1,0,0,0-.55-.13H91.88l-.3,1.43H93.8a1.266,1.266,0,0,0,.69-.18.893.893,0,0,0,.36-.56C94.85,50.3,94.86,50.25,94.86,50.2Z"/><path d="M106.29,48.17a1.112,1.112,0,0,1,.17-.16.265.265,0,0,1,.14-.05h1.96a.277.277,0,0,1,.16.05.186.186,0,0,1,.07.16.2.2,0,0,1-.01.08l-1.66,7.8a.315.315,0,0,1-.34.29h-1.95c-.16,0-.25-.07-.25-.2a.44.44,0,0,1,.01-.09l.88-4.14-3.7,4.23a.662.662,0,0,1-.16.15.387.387,0,0,1-.17.04H99.5c-.15,0-.23-.06-.23-.19a.459.459,0,0,1,.01-.1l1.66-7.8a.332.332,0,0,1,.13-.21.372.372,0,0,1,.22-.08h1.95a.277.277,0,0,1,.16.05.186.186,0,0,1,.07.16.2.2,0,0,1-.01.08l-.9,4.21Z"/><path d="M116.38,53.61a.16.16,0,0,1,.16.09l.72,1.39a.343.343,0,0,1,.04.16.335.335,0,0,1-.18.25,4.84,4.84,0,0,1-1.32.69,4.434,4.434,0,0,1-1.47.28,3.707,3.707,0,0,1-1.85-.46,3.324,3.324,0,0,1-1.28-1.27,3.681,3.681,0,0,1-.46-1.85,4.15,4.15,0,0,1,.08-.83,4.738,4.738,0,0,1,.93-2.13,5.3,5.3,0,0,1,1.79-1.51,4.747,4.747,0,0,1,2.23-.55,3.931,3.931,0,0,1,1.52.27,3.853,3.853,0,0,1,1.16.75.245.245,0,0,1,.08.16.189.189,0,0,1-.07.14l-1.18,1.38a.269.269,0,0,1-.18.08.239.239,0,0,1-.14-.05,2.55,2.55,0,0,0-.69-.41,2.209,2.209,0,0,0-.74-.12,2.051,2.051,0,0,0-.99.27,2.77,2.77,0,0,0-1.34,1.83,2.594,2.594,0,0,0-.06.52,1.683,1.683,0,0,0,.19.82,1.339,1.339,0,0,0,.53.55,1.566,1.566,0,0,0,.79.19,1.9,1.9,0,0,0,.77-.16,6.853,6.853,0,0,0,.79-.42A.235.235,0,0,1,116.38,53.61Z"/><path d="M50.87,31.52a7.112,7.112,0,0,0-6.73-4.08c-3.53-.04-7.06-.1-10.59.02-2.04.07-2.73-1.43-2.08-2.95.74-1.74,1.41-3.51,2.08-5.28a6.763,6.763,0,0,0-1.16-7.19c-1.15-1.37-2.2-1.37-3.46-.1-3.94,3.93-7.78,7.96-11.85,11.74-2.74,2.53-4.12,5.38-3.79,9.12.08.86.08,4.86.07,8.96H24.77a8.084,8.084,0,0,1,6.72-6.93,7.955,7.955,0,0,1,1.3-.11c.17,0,.33.01.5.02,1.57-.01.59-.01,2.15,0a1.228,1.228,0,0,1,1.22.77,1.516,1.516,0,0,1,.1.6c.01.45,0,.9,0,1.36,0,.33,0,.33.32.33h5.64a1.429,1.429,0,0,1,1.28.62,1.414,1.414,0,0,1-1.19,2.21H38.04c-.34,0-.68.01-1.02,0-.2-.01-.28.04-.27.26q.015,1.95,0,3.9c0,.23.08.27.29.27H42.8a1.4,1.4,0,0,1,1.42,1.12,1.429,1.429,0,0,1-1.46,1.72c-1.89-.01-3.78,0-5.66,0-.33,0-.33,0-.33.34,0,.53-.01,1.06-.02,1.59a1.211,1.211,0,0,1-1.2,1.12c-1.58,0-.61.01-2.19-.01-.19.01-.38.02-.57.02-.29,0-.57-.02-.85-.04a8.086,8.086,0,0,1-4.02-1.58c-.13-.1-.26-.2-.38-.31-.14-.12-.27-.24-.4-.37a1.141,1.141,0,0,1-.11-.11.6.6,0,0,0-.08-.08l-.1-.1a8.117,8.117,0,0,1-2.07-4.44H13.35c-.02,3.64-.04,6.93-.03,7.6a6.914,6.914,0,0,0,6.61,7.07l21.09-.02c3.83-.2,6.56-2.31,7.4-7.25l3.12-16.52A7.273,7.273,0,0,0,50.87,31.52Z" fill="url(#a)"/></g></svg>