<svg xmlns="http://www.w3.org/2000/svg" xmlns:xlink="http://www.w3.org/1999/xlink" width="137.112" height="61.035" viewBox="0 0 137.112 61.035"><defs><linearGradient id="a" x1="1.289" y1="-0.25" x2="-0.127" y2="1.249" gradientUnits="objectBoundingBox"><stop offset="0.205" stop-color="#214578"/><stop offset="0.374" stop-color="#2f6095"/><stop offset="0.645" stop-color="#4387bd"/><stop offset="0.859" stop-color="#50a0d6"/><stop offset="0.989" stop-color="#55a9e0"/></linearGradient></defs><g transform="translate(-4665.945 3807.98)"><text transform="translate(4724.057 -3765.329)" fill="#161615" font-size="23.451" font-family="SegoeUI, Segoe UI" letter-spacing="0.039em"><tspan x="0" y="0">Готово</tspan></text><text transform="translate(4721.513 -3750.944)" fill="#161615" font-size="16.522" font-family="SegoeUI, Segoe UI" letter-spacing="0.132em"><tspan x="0" y="0">сервис</tspan></text><path d="M4669.146-3757c.054,5.3,4.205,8.918,8.321,8.9l26.546-.02c4.82-.257,8.259-2.909,9.309-9.122l3.923-20.793a9.162,9.162,0,0,0-.846-4.132,8.928,8.928,0,0,0-8.467-5.13c-4.443-.052-8.889-.119-13.327.029-2.567.085-3.43-1.806-2.616-3.719.933-2.19,1.776-4.419,2.624-6.645a8.5,8.5,0,0,0-1.463-9.044c-1.442-1.719-2.766-1.718-4.357-.131-4.956,4.944-9.788,10.022-14.919,14.775-3.444,3.19-5.183,6.765-4.765,11.476C4669.308-3778.31,4669.127-3758.951,4669.146-3757Z" fill="url(#a)"/><path d="M4706.246-3765.129q-2.993,0-5.986,0H4699c-.266,0-.363-.058-.36-.344q.019-2.455,0-4.911c0-.275.092-.338.346-.328.425.016.852.007,1.279.005h.1c1.966,0,3.932,0,5.9,0a1.708,1.708,0,0,0,1.616-.975,1.7,1.7,0,0,0-.117-1.81,1.8,1.8,0,0,0-1.615-.783q-3.548,0-7.1,0c-.4,0-.4,0-.4-.415,0-.569.013-1.138-.006-1.706a2.127,2.127,0,0,0-.13-.756,1.545,1.545,0,0,0-1.535-.971c-1.97-.005-.736-.013-2.706,0-.208-.012-.417-.021-.627-.021a10.283,10.283,0,0,0-1.64.133,10.216,10.216,0,0,0-8.574,10.081,10.176,10.176,0,0,0,2.73,6.949c.04.043.082.086.123.128s.066.071.1.1.094.093.141.139q.246.239.508.462c.156.133.316.263.48.386a10.166,10.166,0,0,0,5.063,1.99,10.513,10.513,0,0,0,1.069.055c.24,0,.478-.011.715-.027,1.986.022.767.018,2.753.014a1.528,1.528,0,0,0,1.51-1.408c.013-.668.019-1.336.025-2,0-.429,0-.429.419-.429,2.376,0,4.751-.008,7.127,0a1.8,1.8,0,0,0,1.842-2.163A1.77,1.77,0,0,0,4706.246-3765.129Z" fill="#fff"/><rect width="20.082" height="2.711" transform="translate(4665.945 -3769.277)" fill="#fff"/></g></svg>